<mxfile host="app.diagrams.net" modified="2024-01-17T13:03:26.353Z" agent="Mozilla/5.0 (Macintosh; Intel Mac OS X 10_15_7) AppleWebKit/537.36 (KHTML, like Gecko) Chrome/120.0.0.0 Safari/537.36" etag="X97bixP0HZUgkDOdIfF8" version="22.1.19" type="device">
  <diagram name="Page-1" id="v8Cf7UUNC1cB-6PyrZZn">
    <mxGraphModel dx="1026" dy="664" grid="1" gridSize="10" guides="1" tooltips="1" connect="1" arrows="1" fold="1" page="1" pageScale="1" pageWidth="850" pageHeight="1100" math="0" shadow="0">
      <root>
        <mxCell id="0" />
        <mxCell id="1" parent="0" />
        <mxCell id="h_-4YhCqwHQwcukxxj3B-31" value="Node MCU 8266" style="ellipse;whiteSpace=wrap;html=1;fillColor=#f8cecc;strokeColor=#b85450;" parent="1" vertex="1">
          <mxGeometry x="370" y="260" width="120" height="80" as="geometry" />
        </mxCell>
        <mxCell id="h_-4YhCqwHQwcukxxj3B-32" value="Blynk" style="ellipse;shape=cloud;whiteSpace=wrap;html=1;fillColor=#d5e8d4;strokeColor=#82b366;" parent="1" vertex="1">
          <mxGeometry x="370" y="85" width="120" height="80" as="geometry" />
        </mxCell>
        <mxCell id="h_-4YhCqwHQwcukxxj3B-33" value="Cảm biến RFID RC522" style="rounded=1;whiteSpace=wrap;html=1;fillColor=#ffe6cc;strokeColor=#d79b00;" parent="1" vertex="1">
          <mxGeometry x="200" y="410" width="120" height="60" as="geometry" />
        </mxCell>
        <mxCell id="h_-4YhCqwHQwcukxxj3B-37" value="Đèn LED" style="rounded=1;whiteSpace=wrap;html=1;fillColor=#dae8fc;strokeColor=#6c8ebf;" parent="1" vertex="1">
          <mxGeometry x="630" y="270" width="120" height="60" as="geometry" />
        </mxCell>
        <mxCell id="h_-4YhCqwHQwcukxxj3B-38" value="Buzzer" style="rounded=1;whiteSpace=wrap;html=1;fillColor=#dae8fc;strokeColor=#6c8ebf;" parent="1" vertex="1">
          <mxGeometry x="110" y="270" width="120" height="60" as="geometry" />
        </mxCell>
        <mxCell id="h_-4YhCqwHQwcukxxj3B-40" value="" style="endArrow=classic;html=1;rounded=0;strokeWidth=2;fillColor=#fff2cc;strokeColor=#1A1A1A;entryX=1;entryY=0.5;entryDx=0;entryDy=0;exitX=0;exitY=0.5;exitDx=0;exitDy=0;" parent="1" source="h_-4YhCqwHQwcukxxj3B-31" target="h_-4YhCqwHQwcukxxj3B-38" edge="1">
          <mxGeometry width="50" height="50" relative="1" as="geometry">
            <mxPoint x="310" y="530" as="sourcePoint" />
            <mxPoint x="360" y="480" as="targetPoint" />
          </mxGeometry>
        </mxCell>
        <mxCell id="h_-4YhCqwHQwcukxxj3B-45" value="" style="endArrow=classic;html=1;rounded=0;strokeWidth=2;fillColor=#dae8fc;strokeColor=#1A1A1A;entryX=0.5;entryY=1;entryDx=0;entryDy=0;exitX=0.5;exitY=0;exitDx=0;exitDy=0;" parent="1" source="h_-4YhCqwHQwcukxxj3B-33" target="h_-4YhCqwHQwcukxxj3B-31" edge="1">
          <mxGeometry width="50" height="50" relative="1" as="geometry">
            <mxPoint x="285" y="410" as="sourcePoint" />
            <mxPoint x="578" y="258" as="targetPoint" />
          </mxGeometry>
        </mxCell>
        <mxCell id="h_-4YhCqwHQwcukxxj3B-47" value="" style="endArrow=classic;html=1;rounded=0;strokeWidth=2;fillColor=#fff2cc;strokeColor=#1A1A1A;entryX=0;entryY=0.5;entryDx=0;entryDy=0;exitX=1;exitY=0.5;exitDx=0;exitDy=0;" parent="1" source="h_-4YhCqwHQwcukxxj3B-31" target="h_-4YhCqwHQwcukxxj3B-37" edge="1">
          <mxGeometry width="50" height="50" relative="1" as="geometry">
            <mxPoint x="560" y="230" as="sourcePoint" />
            <mxPoint x="240" y="305" as="targetPoint" />
          </mxGeometry>
        </mxCell>
        <mxCell id="h_-4YhCqwHQwcukxxj3B-48" value="" style="endArrow=classic;html=1;rounded=0;strokeWidth=2;fillColor=#dae8fc;strokeColor=#1A1A1A;exitX=0.5;exitY=0;exitDx=0;exitDy=0;" parent="1" source="h_-4YhCqwHQwcukxxj3B-31" edge="1">
          <mxGeometry width="50" height="50" relative="1" as="geometry">
            <mxPoint x="440" y="420" as="sourcePoint" />
            <mxPoint x="430" y="160" as="targetPoint" />
          </mxGeometry>
        </mxCell>
        <mxCell id="wk4k80ymlJrlePEKd4uO-6" value="" style="edgeStyle=orthogonalEdgeStyle;rounded=0;orthogonalLoop=1;jettySize=auto;html=1;" edge="1" parent="1" source="wk4k80ymlJrlePEKd4uO-1" target="wk4k80ymlJrlePEKd4uO-3">
          <mxGeometry relative="1" as="geometry" />
        </mxCell>
        <mxCell id="wk4k80ymlJrlePEKd4uO-7" value="" style="edgeStyle=orthogonalEdgeStyle;rounded=0;orthogonalLoop=1;jettySize=auto;html=1;strokeWidth=2;" edge="1" parent="1" source="wk4k80ymlJrlePEKd4uO-1" target="wk4k80ymlJrlePEKd4uO-3">
          <mxGeometry relative="1" as="geometry" />
        </mxCell>
        <mxCell id="wk4k80ymlJrlePEKd4uO-1" value="Relay" style="rounded=1;whiteSpace=wrap;html=1;fillColor=#dae8fc;strokeColor=#6c8ebf;" vertex="1" parent="1">
          <mxGeometry x="540" y="410" width="120" height="60" as="geometry" />
        </mxCell>
        <mxCell id="wk4k80ymlJrlePEKd4uO-2" value="" style="endArrow=classic;html=1;rounded=0;strokeWidth=2;fillColor=#fff2cc;strokeColor=#1A1A1A;entryX=0.45;entryY=-0.05;entryDx=0;entryDy=0;exitX=0.5;exitY=1;exitDx=0;exitDy=0;entryPerimeter=0;" edge="1" parent="1" target="wk4k80ymlJrlePEKd4uO-1" source="h_-4YhCqwHQwcukxxj3B-31">
          <mxGeometry width="50" height="50" relative="1" as="geometry">
            <mxPoint x="400" y="440" as="sourcePoint" />
            <mxPoint x="150" y="445" as="targetPoint" />
          </mxGeometry>
        </mxCell>
        <mxCell id="wk4k80ymlJrlePEKd4uO-3" value="Đèn LED" style="rounded=1;whiteSpace=wrap;html=1;fillColor=#dae8fc;strokeColor=#6c8ebf;" vertex="1" parent="1">
          <mxGeometry x="700" y="410" width="120" height="60" as="geometry" />
        </mxCell>
        <mxCell id="wk4k80ymlJrlePEKd4uO-11" value="điều khiển" style="text;html=1;align=center;verticalAlign=middle;resizable=0;points=[];autosize=1;strokeColor=none;fillColor=none;" vertex="1" parent="1">
          <mxGeometry x="500" y="340" width="80" height="30" as="geometry" />
        </mxCell>
        <mxCell id="wk4k80ymlJrlePEKd4uO-12" value="gửi thông tin" style="text;html=1;align=center;verticalAlign=middle;resizable=0;points=[];autosize=1;strokeColor=none;fillColor=none;" vertex="1" parent="1">
          <mxGeometry x="340" y="200" width="90" height="30" as="geometry" />
        </mxCell>
        <mxCell id="wk4k80ymlJrlePEKd4uO-13" value="gửi giá trị" style="text;html=1;align=center;verticalAlign=middle;resizable=0;points=[];autosize=1;strokeColor=none;fillColor=none;" vertex="1" parent="1">
          <mxGeometry x="285" y="340" width="70" height="30" as="geometry" />
        </mxCell>
        <mxCell id="wk4k80ymlJrlePEKd4uO-14" value="bật/tắt" style="text;html=1;align=center;verticalAlign=middle;resizable=0;points=[];autosize=1;strokeColor=none;fillColor=none;" vertex="1" parent="1">
          <mxGeometry x="520" y="270" width="60" height="30" as="geometry" />
        </mxCell>
        <mxCell id="wk4k80ymlJrlePEKd4uO-15" value="bật/tắt" style="text;html=1;align=center;verticalAlign=middle;resizable=0;points=[];autosize=1;strokeColor=none;fillColor=none;" vertex="1" parent="1">
          <mxGeometry x="270" y="270" width="60" height="30" as="geometry" />
        </mxCell>
      </root>
    </mxGraphModel>
  </diagram>
</mxfile>
